<?xml version="1.0" standalone="no"?>
<!DOCTYPE svg PUBLIC "-//W3C//DTD SVG 20010904//EN"
 "http://www.w3.org/TR/2001/REC-SVG-20010904/DTD/svg10.dtd">
<svg version="1.0" xmlns="http://www.w3.org/2000/svg"
    width="2024.000000pt" height="100.000000pt" viewBox="512 512 512.000000 512.000000"
    preserveAspectRatio="xMidYMid meet">
 >
<metadata>
Created by potrace 1.16, written by Peter Selinger 2001-2019
</metadata>
<g transform="translate(0.000000,512.000000) scale(0.100000,-0.100000)"
fill="#000000" stroke="none">
<path d="M1305 5105 c-48 -17 -80 -52 -94 -103 -13 -45 -15 -3052 -3 -3052 4
0 37 24 73 54 95 78 150 154 192 262 l22 59 5 1129 5 1128 71 -88 c278 -349
446 -636 505 -866 28 -109 24 -237 -11 -318 -38 -91 -107 -201 -181 -289 -92
-111 -103 -162 -54 -237 34 -52 122 -71 183 -40 41 21 157 159 226 269 198
317 199 586 2 993 -145 299 -376 619 -698 967 -127 137 -167 158 -243 132z"/>
</g>
</svg>
